<svg xmlns="http://www.w3.org/2000/svg" xmlns:xlink="http://www.w3.org/1999/xlink" width="1415.028" height="296.269" viewBox="0 0 1415.028 296.269"><defs><filter id="Path_11" width="1415.028" height="296.268" x="0" y="0" filterUnits="userSpaceOnUse"><feOffset dy="8" input="SourceAlpha"/><feGaussianBlur result="blur" stdDeviation="8"/><feFlood flood-color="#120b3c"/><feComposite in2="blur" operator="in"/><feComposite in="SourceGraphic"/></filter><filter id="Ellipse_2" width="72" height="72" x="144.985" y="151.363" filterUnits="userSpaceOnUse"><feOffset dy="8" input="SourceAlpha"/><feGaussianBlur result="blur-2" stdDeviation="8"/><feFlood flood-color="#120b3c"/><feComposite in2="blur-2" operator="in"/><feComposite in="SourceGraphic"/></filter><filter id="Ellipse_3" width="72" height="72" x="688.985" y="59.363" filterUnits="userSpaceOnUse"><feOffset dy="8" input="SourceAlpha"/><feGaussianBlur result="blur-3" stdDeviation="8"/><feFlood flood-color="#120b3c"/><feComposite in2="blur-3" operator="in"/><feComposite in="SourceGraphic"/></filter><filter id="Ellipse_4" width="72" height="72" x="1123.985" y="130.363" filterUnits="userSpaceOnUse"><feOffset dy="8" input="SourceAlpha"/><feGaussianBlur result="blur-4" stdDeviation="8"/><feFlood flood-color="#120b3c"/><feComposite in2="blur-4" operator="in"/><feComposite in="SourceGraphic"/></filter></defs><g id="Group_3" data-name="Group 3" transform="translate(24.985 -305.637)"><path id="Path_12" fill="#151a59" d="M1365.141,420.422c-78.822,39.867-131.848,137.961-315.289,159.469s-198.192-96.574-365.31-87.927S504.189,591.051,381.38,614.479s-158.835-41.537-238.74-30S35.66,644.993,0,665.164c3.124.837,0,33.742,0,33.742H1365.141Z" data-name="Path 12" transform="translate(0 -97)"/><g filter="url(#Path_11)" transform="matrix(1, 0, 0, 1, -24.98, 305.64)"><path id="Path_11-2" fill="none" stroke="#46eef8" stroke-width="4" d="M0,665.164c35.66-20.171,62.736-69.148,142.641-80.685s100.853,55.5,223.661,32.073,131.4-115.38,313.964-125.161,186.145,110.008,369.586,88.5,236.467-119.6,315.289-159.469" data-name="Path 11" transform="translate(24.98 -402.64)"/></g><g filter="url(#Ellipse_2)" transform="matrix(1, 0, 0, 1, -24.98, 305.64)"><g id="Ellipse_2-2" fill="#110837" stroke="#46eef8" stroke-width="4" data-name="Ellipse 2" transform="translate(172.98 171.36)"><circle cx="8" cy="8" r="8" stroke="none"/><circle cx="8" cy="8" r="10" fill="none"/></g></g><g filter="url(#Ellipse_3)" transform="matrix(1, 0, 0, 1, -24.98, 305.64)"><g id="Ellipse_3-2" fill="#110837" stroke="#46eef8" stroke-width="4" data-name="Ellipse 3" transform="translate(716.98 79.36)"><circle cx="8" cy="8" r="8" stroke="none"/><circle cx="8" cy="8" r="10" fill="none"/></g></g><g filter="url(#Ellipse_4)" transform="matrix(1, 0, 0, 1, -24.98, 305.64)"><g id="Ellipse_4-2" fill="#110837" stroke="#46eef8" stroke-width="4" data-name="Ellipse 4" transform="translate(1151.98 150.36)"><circle cx="8" cy="8" r="8" stroke="none"/><circle cx="8" cy="8" r="10" fill="none"/></g></g></g></svg>